<svg width="56" height="55" viewBox="0 0 56 55" fill="none" xmlns="http://www.w3.org/2000/svg">
<path fill-rule="evenodd" clip-rule="evenodd" d="M30.2248 44.6099C30.3408 46.0325 30.452 47.3983 30.4662 48.3099C31.5941 48.7777 34.2668 50.0108 35.7543 51.4011C33.0413 51.6692 20.4418 51.364 18.9872 51.1241C20.8509 50.0231 22.9774 49.0195 25.0292 48.3311C24.9956 46.6877 25.098 45.1388 25.2065 43.4957C25.2923 42.1971 25.382 40.8397 25.4115 39.3304C25.2062 39.2925 24.8673 39.2058 24.5318 39.1201C24.218 39.0398 23.9072 38.9603 23.7119 38.9223C21.2753 38.4488 19.4999 37.1224 18.217 35.3998C16.4721 36.1536 14.2934 35.2487 12.8597 34.2805C9.85043 32.2485 5.8461 28.1743 7.81062 24.2578C8.98312 21.9203 12.8405 21.1829 15.2061 21.0793C15.3375 19.9903 15.6332 18.9309 16.3212 18.2243C17.5687 16.9432 19.714 16.406 21.4297 16.1618C25.2441 15.619 29.1474 15.5691 32.9337 16.4358C33.0253 16.4566 33.1223 16.4783 33.2241 16.5012C34.9269 16.8834 37.9765 17.5681 39.8457 19.0245C40.2707 19.3855 40.6113 19.7999 40.8289 20.2784C41.0235 20.7063 41.1362 21.5305 41.1402 22.6048C41.4464 22.6867 41.7784 22.768 42.1267 22.8532C44.4037 23.4105 47.3731 24.1372 48.3097 26.322C49.1991 28.3967 48.0714 30.3625 46.8358 31.9978C44.526 35.055 40.1816 38.9795 35.9333 36.8955C35.1851 37.5878 34.3425 38.1565 33.397 38.5556C32.4498 38.9553 31.2327 39.2816 29.9613 39.4419C29.8964 40.5786 30.065 42.6484 30.2248 44.6099ZM11.007 23.9805C7.69709 25.1181 9.95057 29.8729 11.8357 31.3385C12.4089 31.784 13.0183 32.1873 13.6384 32.5663C14.3639 33.0096 15.9892 33.6044 16.8721 33.2753C16.448 32.3301 16.1252 31.2829 15.8218 30.2426C15.1931 28.0869 14.9082 25.6962 14.8191 23.4491C13.534 23.3936 12.2281 23.5607 11.007 23.9805ZM46.1232 28.7558C44.712 32.1724 41.4101 35.457 37.3642 35.0662C39.1383 31.9988 40.904 28.3168 41.319 24.7882C41.4271 24.811 41.5362 24.832 41.6455 24.8531C41.9055 24.9032 42.1668 24.9535 42.4185 25.0288C44.0427 25.5142 47.0721 26.4589 46.1232 28.7558Z" fill="white" stroke="black" stroke-width="1.5" stroke-miterlimit="1.5" stroke-linecap="round" stroke-linejoin="round"/>
<path d="M33.2093 33.8635C29.289 33.1399 25.3763 33.0145 22.2184 33.4373C20.9059 33.6131 19.5269 33.7131 18.2969 34.2471" stroke="black" stroke-width="1.5" stroke-miterlimit="1.5" stroke-linecap="round" stroke-linejoin="round"/>
<path d="M37.0079 31.5202C35.8856 31.1808 34.7798 30.8364 33.6254 30.6137C29.062 29.7333 24.5498 29.6463 19.9805 30.3538" stroke="black" stroke-width="1.5" stroke-miterlimit="1.5" stroke-linecap="round" stroke-linejoin="round"/>
<path fill-rule="evenodd" clip-rule="evenodd" d="M14.1331 7.85834C14.0004 8.98295 13.8392 10.1502 13.8164 11.2801L14.1331 7.85834Z" fill="white"/>
<path d="M14.1331 7.85834C14.0004 8.98295 13.8392 10.1502 13.8164 11.2801" stroke="black" stroke-width="1.5" stroke-miterlimit="1.5" stroke-linecap="round" stroke-linejoin="round"/>
<path fill-rule="evenodd" clip-rule="evenodd" d="M10.7842 12.0212C11.4362 11.9772 12.091 11.9866 12.7438 12.0082L10.7842 12.0212Z" fill="white"/>
<path d="M10.7842 12.0212C11.4362 11.9772 12.091 11.9866 12.7438 12.0082" stroke="black" stroke-width="1.5" stroke-miterlimit="1.5" stroke-linecap="round" stroke-linejoin="round"/>
<path fill-rule="evenodd" clip-rule="evenodd" d="M14.8711 11.9636C15.6172 12.0881 16.3381 12.0545 17.0887 12.0664L14.8711 11.9636Z" fill="white"/>
<path d="M14.8711 11.9636C15.6172 12.0881 16.3381 12.0545 17.0887 12.0664" stroke="black" stroke-width="1.5" stroke-miterlimit="1.5" stroke-linecap="round" stroke-linejoin="round"/>
<path fill-rule="evenodd" clip-rule="evenodd" d="M13.7246 15.5846C13.5936 14.8676 13.4616 13.8485 13.652 13.1219L13.7246 15.5846Z" fill="white"/>
<path d="M13.7246 15.5846C13.5936 14.8676 13.4616 13.8485 13.652 13.1219" stroke="black" stroke-width="1.5" stroke-miterlimit="1.5" stroke-linecap="round" stroke-linejoin="round"/>
<path fill-rule="evenodd" clip-rule="evenodd" d="M38.9181 40.3359C38.8041 40.9361 38.7521 41.5454 38.6953 42.1529L38.9181 40.3359Z" fill="white"/>
<path d="M38.9181 40.3359C38.8041 40.9361 38.7521 41.5454 38.6953 42.1529" stroke="black" stroke-width="1.5" stroke-miterlimit="1.5" stroke-linecap="round" stroke-linejoin="round"/>
<path fill-rule="evenodd" clip-rule="evenodd" d="M36.7305 42.9299C37.0341 42.8972 37.3362 42.8648 37.6408 42.8434L36.7305 42.9299Z" fill="white"/>
<path d="M36.7305 42.9299C37.0341 42.8972 37.3362 42.8648 37.6408 42.8434" stroke="black" stroke-width="1.5" stroke-miterlimit="1.5" stroke-linecap="round" stroke-linejoin="round"/>
<path fill-rule="evenodd" clip-rule="evenodd" d="M38.5831 43.6817C38.5478 44.3346 38.5668 44.9864 38.5459 45.6392L38.5831 43.6817Z" fill="white"/>
<path d="M38.5831 43.6817C38.5478 44.3346 38.5668 44.9864 38.5459 45.6392" stroke="black" stroke-width="1.5" stroke-miterlimit="1.5" stroke-linecap="round" stroke-linejoin="round"/>
<path fill-rule="evenodd" clip-rule="evenodd" d="M39.3623 43.0977C39.83 43.0694 40.3002 43.0348 40.7688 43.0314L39.3623 43.0977Z" fill="white"/>
<path d="M39.3623 43.0977C39.83 43.0694 40.3002 43.0348 40.7688 43.0314" stroke="black" stroke-width="1.5" stroke-miterlimit="1.5" stroke-linecap="round" stroke-linejoin="round"/>
<path fill-rule="evenodd" clip-rule="evenodd" d="M39.079 11.4024C38.8573 9.60748 38.8187 8.23906 37.0557 7.30373C38.5956 6.89458 39.6562 4.96523 39.9069 3.49432C40.1824 4.89785 40.4073 6.53702 41.5452 7.54806C40.1028 8.12583 39.2508 9.76308 39.0793 11.2163" fill="white"/>
<path d="M39.079 11.4024C38.8573 9.60748 38.8187 8.23906 37.0557 7.30373C38.5956 6.89458 39.6562 4.96523 39.9069 3.49432C40.1824 4.89785 40.4073 6.53702 41.5452 7.54806C40.1028 8.12583 39.2508 9.76308 39.0793 11.2163" stroke="black" stroke-width="1.5" stroke-miterlimit="1.5" stroke-linecap="round" stroke-linejoin="round"/>
<path fill-rule="evenodd" clip-rule="evenodd" d="M18.059 44.1816C17.9767 43.4415 17.7809 42.5683 16.9746 42.3143C17.7043 42.0232 18.0743 41.2373 18.1661 40.5026C18.1868 41.1272 18.3406 41.9628 19.0036 42.2141C18.2614 42.509 18.2302 43.4991 18.059 44.1816Z" fill="white" stroke="black" stroke-width="1.5" stroke-miterlimit="1.5" stroke-linecap="round" stroke-linejoin="round"/>
</svg>
