<svg width="56" height="56" viewBox="0 0 56 56" fill="none" xmlns="http://www.w3.org/2000/svg">
<path fill-rule="evenodd" clip-rule="evenodd" d="M25.6049 32.2967C24.3377 31.3878 22.9242 30.6137 21.5942 29.8032C20.783 29.309 20.0089 28.4828 19.1486 28.0756C15.9063 33.7868 12.5928 39.5013 9.9082 45.4774C11.9165 44.7598 14.4048 43.8371 16.1338 42.6405C16.5345 44.8295 17.3809 46.8899 17.9113 49.0365C20.0739 43.1736 23.5188 37.8301 25.7628 31.9999" fill="white"/>
<path d="M25.6049 32.2967C24.3377 31.3878 22.9242 30.6137 21.5942 29.8032C20.783 29.309 20.0089 28.4828 19.1486 28.0756C15.9063 33.7868 12.5928 39.5013 9.9082 45.4774C11.9165 44.7598 14.4048 43.8371 16.1338 42.6405C16.5345 44.8295 17.3809 46.8899 17.9113 49.0365C20.0739 43.1736 23.5188 37.8301 25.7628 31.9999" stroke="black" stroke-width="1.5" stroke-miterlimit="1.5" stroke-linecap="round" stroke-linejoin="round"/>
<path fill-rule="evenodd" clip-rule="evenodd" d="M36.7296 29.2163C35.1447 30.2258 32.5582 31.7835 30.8809 32.6419C31.6992 35.4926 36.3938 46.2986 37.7328 48.6098C38.1805 46.2175 38.6214 43.7868 39.1393 41.4076C41.5047 42.6076 43.5994 43.496 46.1484 45.0939C45.5831 43.9322 38.4615 31.895 36.7296 29.2163Z" fill="white" stroke="black" stroke-width="1.5" stroke-miterlimit="1.5" stroke-linecap="round" stroke-linejoin="round"/>
<path fill-rule="evenodd" clip-rule="evenodd" d="M35.5086 10.4888C34.5049 10.4364 33.4801 10.7915 32.7927 11.5712C33.4026 10.1254 32.1402 8.14002 30.908 7.46449C28.7645 6.28908 25.2248 7.82579 24.9765 10.3242C23.0008 6.58845 17.5422 8.39292 17.7668 12.5392C17.4317 12.3302 17.1068 12.1994 16.7275 12.0714C13.2356 10.8923 11.1238 16.0397 13.417 18.373C10.3955 19.227 9.23534 24.4529 12.6059 25.6608C9.02688 27.594 11.3668 34.4064 15.5682 33.0442C15.2897 34.2254 15.2313 35.6807 15.8959 36.7526C16.9742 38.4918 19.7537 39.2888 21.4345 37.872C21.4065 41.4775 26.8075 42.0055 28.2886 39.1383C30.7967 42.3322 35.6117 41.1008 35.965 36.9192C36.801 37.2165 37.7506 37.4735 38.6344 37.2482C41.3808 36.548 42.6023 33.2446 41.2087 30.9163C44.4304 30.4448 46.3844 24.8261 41.755 22.7773C43.4559 21.3767 43.6976 18.986 42.1658 16.8263C41.3573 15.6862 39.4836 15.4546 38.3632 15.641C38.8585 14.3882 38.9058 12.9891 38.0988 11.8516" fill="white"/>
<path d="M35.5086 10.4888C34.5049 10.4364 33.4801 10.7915 32.7927 11.5712C33.4026 10.1254 32.1402 8.14002 30.908 7.46449C28.7645 6.28908 25.2248 7.82579 24.9765 10.3242C23.0008 6.58845 17.5422 8.39292 17.7668 12.5392C17.4317 12.3302 17.1068 12.1994 16.7275 12.0714C13.2356 10.8923 11.1238 16.0397 13.417 18.373C10.3955 19.227 9.23534 24.4529 12.6059 25.6608C9.02688 27.594 11.3668 34.4064 15.5682 33.0442C15.2897 34.2254 15.2313 35.6807 15.8959 36.7526C16.9742 38.4918 19.7537 39.2888 21.4345 37.872C21.4065 41.4775 26.8075 42.0055 28.2886 39.1383C30.7967 42.3322 35.6117 41.1008 35.965 36.9192C36.801 37.2165 37.7506 37.4735 38.6344 37.2482C41.3808 36.548 42.6023 33.2446 41.2087 30.9163C44.4304 30.4448 46.3844 24.8261 41.755 22.7773C43.4559 21.3767 43.6976 18.986 42.1658 16.8263C41.3573 15.6862 39.4836 15.4546 38.3632 15.641C38.8585 14.3882 38.9058 12.9891 38.0988 11.8516" stroke="black" stroke-width="1.5" stroke-miterlimit="1.5" stroke-linecap="round" stroke-linejoin="round"/>
<path d="M30.3066 13.6283C25.3349 11.3115 18.4731 14.4963 16.686 19.6621C14.5947 25.7076 16.1071 32.0078 22.3109 34.9241C26.8968 37.0799 32.7897 36.3632 36.3884 32.6985C41.8951 27.0908 40.0221 18.2683 33.3592 14.9753" stroke="black" stroke-width="1.5" stroke-miterlimit="1.5" stroke-linecap="round" stroke-linejoin="round"/>
<path d="M23.9561 22.1372C25.4299 21.0051 26.7625 19.739 27.4592 18.15" stroke="black" stroke-width="1.5" stroke-miterlimit="1.5" stroke-linecap="round" stroke-linejoin="round"/>
<path fill-rule="evenodd" clip-rule="evenodd" d="M27.5513 18.3445C27.4428 21.9006 27.7325 25.4622 27.5889 29.0142L27.5513 18.3445Z" fill="white"/>
<path d="M27.5513 18.3445C27.4428 21.9006 27.7325 25.4622 27.5889 29.0142" stroke="black" stroke-width="1.5" stroke-miterlimit="1.5" stroke-linecap="round" stroke-linejoin="round"/>
<path fill-rule="evenodd" clip-rule="evenodd" d="M23.7002 29.313C26.3517 28.9955 29.0783 29.2227 31.7077 28.8836L23.7002 29.313Z" fill="white"/>
<path d="M23.7002 29.313C26.3517 28.9955 29.0783 29.2227 31.7077 28.8836" stroke="black" stroke-width="1.5" stroke-miterlimit="1.5" stroke-linecap="round" stroke-linejoin="round"/>
</svg>
