<svg width="64" height="64" viewBox="0 0 64 64" fill="none" xmlns="http://www.w3.org/2000/svg">
<path d="M1.00542 17.3069C1.42096 17.9704 2.1075 18.5006 2.65567 19.0509C3.20383 19.6012 3.78365 20.0895 4.37702 20.5865C5.01288 21.118 5.64178 21.6644 6.29183 22.1809C7.05455 22.7866 8.02306 23.5679 8.94201 22.6914L8.30881 22.9407L8.45933 22.943C8.94218 22.9528 9.39634 22.4434 9.24438 21.9466L9.20094 21.8074L9.09369 22.4984C9.36381 21.9264 9.34392 21.4007 8.96765 20.8906C8.68984 20.5114 8.22286 20.2335 7.84725 19.9537C7.22564 19.4942 6.5812 19.0636 5.94663 18.6249C5.31144 18.1833 4.6781 17.7502 4.00448 17.3662C3.33087 16.9822 2.61722 16.4346 1.8744 16.2143C1.29021 16.0402 0.65771 16.7474 1.00989 17.3073L1.0082 17.3063L1.00542 17.3069Z" fill="#33A944"/>
<path d="M21.2702 0.490054C20.8629 1.14631 20.7412 1.98324 20.5204 2.70693C20.2997 3.43063 20.1574 4.15516 20.0145 4.89544C19.8623 5.68826 19.6917 6.48146 19.5624 7.2802C19.411 8.21728 19.2068 9.41253 20.5885 9.83976L19.9818 9.39043L20.0661 9.52412C20.334 9.95412 21.0911 10.132 21.4876 9.78094L21.5982 9.68182L20.8637 9.88915C21.5758 9.87743 22.0764 9.6302 22.3569 9.0756C22.5664 8.66501 22.5687 8.13187 22.6252 7.67847C22.7154 6.92969 22.7643 6.17341 22.8268 5.42225C22.8917 4.66932 22.9495 3.9217 22.9362 3.16006C22.923 2.39842 23.046 1.53001 22.8336 0.778856C22.6674 0.187738 21.6153 -0.0609573 21.2724 0.494189L21.2725 0.492222L21.2702 0.490054Z" fill="#33A944"/>
<path d="M11.0598 10.9597L11.0762 10.9068C11.1667 11.1747 11.2544 11.4431 11.345 11.711L11.3007 11.6825C11.0096 11.4833 10.9467 11.0528 10.9869 10.7324C10.9879 10.7233 11.009 10.9685 11.0341 10.9359C11.0472 10.915 10.7965 10.6052 10.7792 10.5794C10.5896 10.3211 10.3944 10.064 10.2009 9.80798C9.84167 9.33574 9.47574 8.86652 9.09056 8.41663C8.31046 7.5057 7.46627 6.50241 6.47818 5.82105C5.85734 5.3928 6.00656 4.37458 6.50034 3.93618C7.09001 3.41315 7.87794 3.58555 8.33659 4.17773C8.75035 4.71182 9.2648 5.17653 9.71005 5.68697C10.2155 6.26538 10.7044 6.85505 11.1702 7.46644C11.5934 8.02364 11.9999 8.59213 12.3733 9.18316C12.7583 9.79383 13.1001 10.3475 12.9497 11.104C12.8461 11.625 12.3071 12.0441 11.778 11.9162L11.7487 11.9095L12.1799 11.877L12.127 11.8967C11.5994 12.0988 10.866 11.564 11.0603 10.9551L11.0586 10.954L11.0598 10.9597Z" fill="#535352"/>
<rect x="19.9473" y="31.1901" width="36" height="32" rx="6" transform="rotate(-6.76535 19.9473 31.1901)" fill="white"/>
<path d="M57.5146 23.8816L53.1543 24.3988C53.4902 23.4794 53.6226 22.4981 53.5424 21.5226C53.2755 19.8128 52.3478 18.2763 50.9591 17.2438C49.5704 16.2114 47.8317 15.7657 46.1176 16.0026C44.0816 16.3335 42.1737 17.2111 40.5975 18.5417C39.0213 19.8722 37.836 21.6058 37.1681 23.5574C36.0721 21.8203 34.5249 20.4135 32.6917 19.4874C30.8584 18.5612 28.808 18.1505 26.7595 18.2991C26.6903 18.3073 26.6211 18.3155 26.5519 18.3237C24.8588 18.5273 23.3105 19.3795 22.2326 20.701C21.1547 22.0226 20.6312 23.7105 20.7722 25.4101L20.7864 25.5302C20.9322 26.4555 21.2756 27.3385 21.7932 28.1192L17.4621 28.633C16.9793 28.6902 16.5389 28.937 16.238 29.3189C15.9371 29.7008 15.8002 30.1867 15.8575 30.6695L16.5054 36.1312C16.5627 36.614 16.8094 37.0544 17.1914 37.3553C17.5733 37.6562 18.0591 37.7931 18.542 37.7358L58.5945 32.9844C59.0773 32.9271 59.5176 32.6804 59.8185 32.2984C60.1195 31.9165 60.2563 31.4307 60.1991 30.9478L59.5511 25.4861C59.4939 25.0033 59.2471 24.563 58.8652 24.2621C58.4833 23.9611 57.9974 23.8243 57.5146 23.8816ZM46.606 19.6371C47.3473 19.5296 48.1016 19.7097 48.7143 20.1406C49.3271 20.5715 49.7517 21.2205 49.9012 21.9545C49.9638 22.7028 49.7349 23.4463 49.2623 24.0297C48.7897 24.6132 48.1099 24.9915 47.3649 25.0856L40.1791 25.938C41.0396 23.5116 42.9157 20.0748 46.606 19.6371ZM24.4204 25.0382C24.3786 24.2877 24.6266 23.5498 25.1131 22.9768C25.5996 22.4037 26.2875 22.0393 27.0348 21.9588C30.8033 21.5265 33.382 24.4016 34.8012 26.576L27.701 27.4183C26.9541 27.5126 26.1993 27.3191 25.59 26.877C24.9807 26.4349 24.5625 25.7775 24.4204 25.0382Z" fill="#33A944"/>
<path d="M42.6406 38.5693L45.2323 60.4161L54.3351 59.3363C55.7837 59.1644 57.1046 58.4242 58.0074 57.2784C58.9101 56.1327 59.3208 54.6752 59.1489 53.2267L57.2052 36.8416L42.6406 38.5693Z" fill="#33A944"/>
<path d="M35.3585 39.4332L20.7939 41.161L22.7377 57.5461C22.9095 58.9947 23.6498 60.3156 24.7955 61.2184C25.9413 62.1211 27.3988 62.5317 28.8473 62.3599L37.9502 61.28L35.3585 39.4332Z" fill="#33A944"/>
</svg>
