<svg width="56" height="56" viewBox="0 0 56 56" fill="none" xmlns="http://www.w3.org/2000/svg">
<path fill-rule="evenodd" clip-rule="evenodd" d="M25.83 41.0289C33.865 42.235 34.9275 39.0239 35.8183 34.0401C36.9446 27.7379 32.7606 16.6936 25.3338 16.0247C20.611 15.5992 19.3572 20.779 16.5211 23.6329C12.4784 27.7008 9.58962 29.5431 4.76172 32.5436C1.34754 34.6654 3.33729 40.954 6.97084 42.6373C8.94523 43.5521 11.351 42.4917 13.3182 42.1273C17.4472 41.3625 21.611 40.3956 25.83 41.0289Z" fill="white" stroke="black" stroke-width="1.5" stroke-miterlimit="1.5" stroke-linecap="round" stroke-linejoin="round"/>
<path d="M33.9892 32.149C33.7375 26.8764 31.2949 19.0659 24.9439 18.0179C21.3679 17.6641 20.1791 22.6353 20.0219 25.1984C19.6949 30.5305 23.0451 38.2864 29.3816 38.9743C33.1402 39.3825 34.1171 34.8271 33.9892 32.149Z" stroke="black" stroke-width="1.5" stroke-miterlimit="1.5" stroke-linecap="round" stroke-linejoin="round"/>
<path fill-rule="evenodd" clip-rule="evenodd" d="M26.745 26.0281C25.4432 26.6302 26.1341 28.9717 26.6685 30.3849C26.9023 31.0031 27.7579 32.2085 28.3026 31.9689C30.0064 31.2197 28.2364 25.5545 26.745 26.0281Z" stroke="black" stroke-width="1.5" stroke-miterlimit="1.5" stroke-linecap="round" stroke-linejoin="round"/>
<path d="M15 42C12.2259 40.5629 10.2447 36.648 9.42677 33.9117C9.0544 32.666 8.84537 31.2831 9.13792 30" stroke="black" stroke-width="1.5" stroke-miterlimit="1.5" stroke-linecap="round" stroke-linejoin="round"/>
<path d="M5.29688 36.6716C5.46982 37.6136 5.82351 38.5426 6.43927 39.2839" stroke="black" stroke-width="1.5" stroke-miterlimit="1.5" stroke-linecap="round" stroke-linejoin="round"/>
<path d="M7 36C7.33879 36.7514 7.98797 37.4319 9 38" stroke="black" stroke-width="1.5" stroke-miterlimit="1.5" stroke-linecap="round" stroke-linejoin="round"/>
<path fill-rule="evenodd" clip-rule="evenodd" d="M17.0808 41.011C16.1567 41.1527 15.0485 41.3836 14 41.5889C14.4324 42.4473 15.0282 43.5108 15.6827 44.2231C15.9633 44.5285 16.2611 44.8465 16.6749 44.9589C16.8393 45.0037 17.0196 45.0067 17.1886 44.9924C17.6904 44.95 18.9498 44.7998 18.998 44.1102C19.0293 43.6622 18.68 43.2083 18.4286 42.871C17.9747 42.2618 17.5468 41.6327 17.1264 41" fill="white"/>
<path d="M17.0808 41.011C16.1567 41.1527 15.0485 41.3836 14 41.5889C14.4324 42.4473 15.0282 43.5108 15.6827 44.2231C15.9633 44.5285 16.2611 44.8465 16.6749 44.9589C16.8393 45.0037 17.0196 45.0067 17.1886 44.9924C17.6904 44.95 18.9498 44.7998 18.998 44.1102C19.0293 43.6622 18.68 43.2083 18.4286 42.871C17.9747 42.2618 17.5468 41.6327 17.1264 41" stroke="black" stroke-width="1.5" stroke-miterlimit="1.5" stroke-linecap="round" stroke-linejoin="round"/>
<path d="M36.4362 40.1249C38.6793 40.7431 40.9416 41.3028 43.1631 42C42.4807 40.7673 42.1778 39.1174 41.755 37.79C44.4665 37.4932 47.2368 37.2232 49.9205 36.7635C48.2377 35.2288 46.7171 33.1813 45.3487 31.3954C47.9319 30.6838 50.472 29.7943 53 28.9142C50.4245 27.1671 47.857 25.3256 45.166 23.7644C46.9389 21.3674 48.5902 18.8726 50.4589 16.5488C47.3365 16.5215 44.213 16.3338 41.0907 16.3274C41.9683 13.7682 43.1001 11.2701 44.0652 8.74246C40.5972 9.81319 37.2596 11.2389 33.7532 12.2062C33.6944 10.1358 33.6923 8.06498 33.5161 6C31.7525 7.71485 30.0116 9.44047 28.1439 11.0454C27.6627 9.89758 27.1721 8.75897 26.6395 7.63316C25.9735 9.396 25.4814 11.2169 25 13.0362" stroke="black" stroke-width="1.5" stroke-miterlimit="1.5" stroke-linecap="round" stroke-linejoin="round"/>
<path d="M14.2302 41.6326C14.6062 42.3836 15.1242 43.3137 15.6932 43.9367C15.9373 44.2039 16.1963 44.4822 16.5562 44.5806C16.6992 44.6197 16.856 44.6224 17.003 44.6099C17.3189 44.583 17.9802 44.5067 18.3372 44.2377C18.5147 44.4259 18.7111 44.6226 18.9145 44.8263C19.8319 45.7453 20.8909 46.806 20.9979 47.8605C21.0769 48.6389 20.3769 49.2978 19.7312 49.5985C18.3319 50.2504 16.909 50.0854 15.6136 49.2706C13.333 47.8362 12.0588 45.093 11.107 42.6735C11.1041 42.6662 11.1009 42.6582 11.0975 42.6496C11.068 42.575 11.0216 42.4577 11 42.3796C11.9552 42.1012 13.1683 41.8427 14.2302 41.6326Z" fill="white"/>
<path d="M26.5642 26C25.3376 26.6005 26.0024 28.8346 26.5174 30.1869C26.7293 30.7431 27.4671 31.7924 27.9946 31.7421C27.9964 31.7467 27.9982 31.7513 28 31.7559C26.8962 32.3345 26.0127 32.8888 25.1655 33.4203C24.4041 33.8979 23.6721 34.3572 22.8358 34.7992C22.0424 33.6989 21.204 31.767 21.0296 31.1689C20.9931 31.0436 20.9573 30.9223 20.9223 30.8034C20.6448 29.8623 20.4142 29.0802 20.2372 27.7728C21.044 27.5336 21.9019 27.3103 22.7687 27.0847C24.0606 26.7484 25.3724 26.407 26.5642 26Z" fill="white"/>
<path d="M14.2302 41.6326C14.6062 42.3836 15.1242 43.3137 15.6932 43.9367C15.9373 44.2039 16.1963 44.4822 16.5562 44.5806C16.6992 44.6197 16.856 44.6224 17.003 44.6099C17.3189 44.583 17.9802 44.5067 18.3372 44.2377C18.5147 44.4259 18.7111 44.6226 18.9145 44.8263C19.8319 45.7453 20.8909 46.806 20.9979 47.8605C21.0769 48.6389 20.3769 49.2978 19.7312 49.5985C18.3319 50.2504 16.909 50.0854 15.6136 49.2706C13.333 47.8362 12.0588 45.093 11.107 42.6735C11.1041 42.6662 11.1009 42.6582 11.0975 42.6496C11.068 42.575 11.0216 42.4577 11 42.3796C11.9552 42.1012 13.1683 41.8427 14.2302 41.6326Z" stroke="black" stroke-width="1.5" stroke-miterlimit="1.5" stroke-linecap="round" stroke-linejoin="round"/>
<path d="M26.5642 26C25.3376 26.6005 26.0024 28.8346 26.5174 30.1869C26.7293 30.7431 27.4671 31.7924 27.9946 31.7421C27.9964 31.7467 27.9982 31.7513 28 31.7559C26.8962 32.3345 26.0127 32.8888 25.1655 33.4203C24.4041 33.8979 23.6721 34.3572 22.8358 34.7992C22.0424 33.6989 21.204 31.767 21.0296 31.1689C20.9931 31.0436 20.9573 30.9223 20.9223 30.8034C20.6448 29.8623 20.4142 29.0802 20.2372 27.7728C21.044 27.5336 21.9019 27.3103 22.7687 27.0847C24.0606 26.7484 25.3724 26.407 26.5642 26Z" stroke="black" stroke-width="1.5" stroke-miterlimit="1.5" stroke-linecap="round" stroke-linejoin="round"/>
</svg>
