<svg width="124" height="516" viewBox="0 0 124 516" fill="none" xmlns="http://www.w3.org/2000/svg">
<path d="M-40.6474 5.3252C-33.4729 16.6208 -34.5879 32.7093 -36.3342 45.5125C-39.0483 65.1785 -44.3924 84.237 -50.5149 102.981C-64.2958 145.238 -81.7796 186.123 -99.8525 226.467C-106.859 242.083 -114.075 257.586 -121.208 273.112L-137.05 259.499C-112.708 238.438 -90.6793 214.677 -67.115 192.693C-44.6869 171.744 -20.4915 153.698 7.5121 142.403C25.7323 135.045 44.7941 131.152 64.1294 129.059C69.221 128.497 74.8596 134.842 74.1863 140.22C72.2927 155.026 67.6219 169.022 59.4797 181.262C51.9265 192.648 42.5218 202.301 32.2335 210.806C21.5244 219.672 10.1841 227.592 -1.07203 235.603C-6.41606 239.383 -11.739 243.208 -16.9358 247.213L-18.9766 248.811C-20.4284 249.936 -17.1462 247.326 -19.145 248.946C-20.3863 249.958 -21.6276 250.971 -22.869 252.006C-25.2885 254.054 -27.666 256.146 -29.9803 258.329C-32.5471 260.759 -35.0298 263.257 -37.4073 265.912C-38.5855 267.217 -39.7216 268.544 -40.8156 269.895C-41.3206 270.525 -41.8256 271.177 -42.3515 271.83C-43.8033 273.697 -41.0471 269.985 -42.7303 272.347C-44.6869 275.07 -46.4963 277.927 -48.1164 280.898C-48.9579 282.428 -49.7364 283.98 -50.4728 285.6C-50.8094 286.343 -51.104 287.13 -51.4827 287.873C-49.9468 284.813 -51.4827 287.94 -51.7772 288.773L-58.6992 275.16C-58.068 275.295 -57.4369 275.407 -56.8057 275.542C-54.9121 275.925 -58.9096 275.272 -56.974 275.52C-55.4591 275.7 -53.9653 275.88 -52.4505 275.992C-49.7154 276.195 -46.9592 276.217 -44.203 276.105C-42.8565 276.06 -41.51 275.97 -40.1634 275.857C-39.4902 275.79 -38.7959 275.745 -38.1226 275.677L-36.755 275.52C-35.3454 275.385 -38.838 275.835 -37.4283 275.61C-34.5249 275.137 -31.6424 274.71 -28.76 274.147C-16.3677 271.65 -4.24899 267.779 7.82767 264.044C32.3387 256.461 58.1752 248.383 83.8223 253.739C98.3396 256.754 111.384 265.327 121.252 276.982C124.513 280.853 124.744 285.803 122.619 290.303C119.737 296.423 115.95 302.026 112.099 307.472C106.566 315.324 100.696 322.93 94.7839 330.445C88.4721 338.501 82.0761 346.466 75.7853 354.522C72.5031 358.729 69.2209 362.937 65.9809 367.19C65.2024 368.225 64.424 369.26 63.6244 370.295C63.393 370.61 63.1405 370.925 62.9091 371.24C62.825 371.33 64.3398 369.327 63.6455 370.25C63.2247 370.812 62.8039 371.375 62.3831 371.937C60.721 374.165 59.0589 376.438 57.4178 378.688C51.2532 387.216 45.299 395.924 39.8288 404.992C37.1988 409.334 34.6951 413.745 32.3387 418.267C31.2447 420.383 30.1716 422.52 29.1617 424.703C28.6778 425.715 28.215 426.751 27.7731 427.763C27.5417 428.303 27.3102 428.843 27.0578 429.406C26.1952 431.386 27.3734 428.641 27.2682 428.933C25.6061 433.028 24.1754 437.236 22.9761 441.511C22.4501 443.491 21.9873 445.471 21.6086 447.497C21.4192 448.442 21.314 449.387 21.1247 450.332C21.314 449.387 21.5034 447.317 21.293 449.364C21.2299 449.837 21.1878 450.354 21.1457 450.849C20.9774 452.717 20.8932 454.607 20.9142 456.497C20.9142 457.375 20.9563 458.252 21.0194 459.152C21.0615 459.625 21.1246 460.097 21.1457 460.547C21.1457 460.727 20.6828 457.307 21.0615 459.625C21.3351 461.38 21.6927 463.135 22.1556 464.845C22.387 465.655 22.7447 466.465 22.9341 467.275C23.0182 467.68 21.7348 464.395 22.5764 466.308C22.7657 466.713 22.9341 467.14 23.1234 467.568C23.8808 469.21 24.7434 470.785 25.7113 472.293C27.3313 474.858 24.2806 470.493 25.9006 472.563C26.5528 473.395 27.2051 474.228 27.8994 474.993C28.5306 475.691 29.1828 476.366 29.835 477.041C30.1506 477.333 30.4662 477.648 30.7818 477.963C31.1605 478.323 32.7805 479.741 31.2657 478.436C29.7508 477.153 31.1394 478.323 31.4971 478.593C31.9389 478.931 32.3808 479.268 32.8016 479.606C33.7063 480.281 34.632 480.933 35.5788 481.563C37.5355 482.846 39.5342 484.016 41.5961 485.096C42.1852 485.321 42.7533 485.614 43.3003 485.951C43.3844 486.019 41.1332 484.961 42.1431 485.389C42.3956 485.501 42.6481 485.636 42.9216 485.749C44.1629 486.311 45.4042 486.851 46.6876 487.346C52.3262 489.574 58.1121 491.352 64.0031 492.702C67.3274 493.489 70.6937 494.164 74.06 494.749C79.362 495.694 82.6231 503.255 80.982 508.385C78.9833 514.55 73.9338 516.778 68.2531 515.765C46.3089 511.895 22.3239 504.312 8.64822 484.173C-1.64011 469.053 -0.924759 449.162 4.31408 432.128C10.5418 411.877 21.7558 393.561 33.4959 376.528C46.351 357.874 60.4265 340.233 74.4177 322.57C77.5316 318.632 80.6244 314.694 83.7172 310.734C85.1689 308.867 86.5996 306.999 88.0303 305.131C88.6825 304.276 89.2926 303.421 89.9449 302.611C89.9449 302.611 88.2196 304.929 89.1664 303.646L89.5872 303.084L90.7023 301.576C95.1206 295.591 99.4968 289.471 103.137 282.9C103.852 281.595 104.504 280.29 105.177 278.94C105.64 283.395 106.082 287.828 106.545 292.261C104.399 289.718 102.043 287.513 99.7072 285.173C98.8656 284.318 100.317 285.69 100.338 285.69C100.065 285.443 99.7703 285.195 99.4547 284.993C98.8867 284.543 98.3186 284.07 97.7295 283.643C96.4881 282.72 95.2258 281.843 93.9213 281.033C92.7641 280.29 91.5649 279.593 90.3446 278.963C90.029 278.805 89.7345 278.67 89.4399 278.467C88.43 277.882 90.3446 278.962 90.3236 278.872C90.2815 278.625 88.43 278.04 88.1565 277.927C85.4845 276.825 82.7493 275.925 79.9511 275.25C79.2989 275.092 78.6677 274.957 78.0155 274.822C77.5736 274.732 75.4697 274.575 77.0897 274.62C78.7098 274.665 76.5848 274.552 76.1429 274.507C75.3645 274.395 74.607 274.305 73.8286 274.237C71.0303 273.967 68.2111 273.855 65.3918 273.9C62.5093 273.945 59.648 274.125 56.7866 274.417C56.4289 274.462 56.0923 274.507 55.7346 274.53C54.5354 274.642 56.7445 274.417 56.7235 274.417C56.1344 274.305 55.2086 274.62 54.6195 274.71C53.0837 274.935 51.5688 275.182 50.0329 275.475C25.4377 279.93 2.14704 290.056 -22.3219 295.186C-36.3342 298.133 -50.4728 299.326 -64.5482 296.288C-69.6608 295.186 -73.3638 287.828 -71.4702 282.675C-61.6027 255.831 -40.5842 237.943 -18.9135 222.169C-8.33064 214.474 2.50468 207.184 12.9192 199.173C13.5294 198.701 14.1185 198.251 14.7286 197.778L15.7596 196.968C16.6643 196.271 14.897 197.666 14.939 197.621C16.0541 196.361 17.6952 195.393 18.9786 194.335C21.4402 192.265 23.8598 190.128 26.2372 187.923C30.8028 183.692 35.0528 179.102 38.9661 174.197C39.2186 173.859 39.4711 173.522 39.7446 173.207C40.5651 172.194 38.1456 175.412 39.429 173.634C39.9129 172.959 40.4179 172.262 40.9018 171.587C41.9117 170.124 42.9005 168.617 43.8263 167.086C45.6357 164.116 47.2768 160.989 48.7074 157.793C48.8547 157.388 49.023 156.983 49.2334 156.623C49.002 156.961 48.3708 158.806 48.8968 157.433C49.2545 156.511 49.6121 155.611 49.9277 154.688C50.5589 152.933 51.127 151.133 51.6319 149.311C52.1158 147.555 52.5577 145.8 52.9153 144.023C53.1257 143.01 53.3151 141.975 53.5045 140.963C53.5676 140.603 53.6096 140.265 53.6728 139.927C54.0936 137.43 53.3361 142.56 53.6728 140.018L63.7507 151.133L61.815 151.358C61.7099 151.358 60.1109 151.561 61.268 151.426C62.4042 151.291 60.8262 151.493 60.721 151.493L58.8274 151.741C56.6604 152.056 54.5143 152.371 52.3473 152.753C48.2025 153.451 44.0998 154.261 39.9971 155.228C32.3598 156.983 24.8486 159.234 17.4638 161.956C15.8437 162.564 14.2237 163.194 12.6037 163.846C11.741 164.184 10.8994 164.544 10.0368 164.904C12.1408 164.026 9.65813 165.084 8.90071 165.421C5.61855 166.906 2.37845 168.481 -0.840591 170.147C-7.06828 173.432 -13.1277 177.055 -18.9977 181.015C-21.9011 182.972 -24.7415 184.997 -27.5397 187.09C-28.8442 188.058 -30.1276 189.048 -31.411 190.038C-32.2526 190.69 -33.5991 191.68 -31.958 190.443C-32.7575 191.05 -33.5149 191.703 -34.2934 192.333C-39.7847 196.811 -45.1077 201.491 -50.3255 206.306C-61.266 216.387 -71.7648 226.962 -82.3266 237.47C-95.4973 250.499 -108.815 263.414 -122.786 275.497C-126.783 278.962 -132.043 279.683 -136.251 276.082C-140.459 272.482 -140.922 266.879 -138.649 261.884C-132.59 248.698 -126.467 235.558 -120.492 222.349C-116.516 213.551 -112.602 204.753 -108.731 195.911C-106.606 191.028 -104.481 186.145 -102.398 181.24C-101.346 178.765 -100.315 176.312 -99.2634 173.837C-98.8005 172.757 -98.3587 171.677 -97.8958 170.597L-97.0753 168.639C-95.876 165.781 -97.5382 169.742 -96.7807 167.964C-88.3649 147.555 -80.2858 126.989 -73.1324 106.041C-66.8836 87.7922 -61.1188 69.1837 -57.6052 50.1027C-57.1844 47.875 -56.9319 45.625 -56.4901 43.3974C-57.3106 47.5601 -56.4901 43.4423 -56.3849 42.3622C-56.2797 41.4172 -56.1745 40.4721 -56.0693 39.5271C-55.6695 35.7694 -55.5222 31.9892 -55.5854 28.1865C-55.5854 27.264 -55.6485 26.3638 -55.7117 25.4413C-55.7958 24.1812 -56.448 21.6161 -55.6275 25.7563C-55.922 24.2713 -56.0482 22.7862 -56.3849 21.3237C-56.5532 20.5811 -56.7426 19.861 -56.953 19.141C-57.0371 18.8485 -57.1633 18.5559 -57.2475 18.2634C-57.6683 16.7783 -56.0483 21.0761 -56.6794 19.7711C-57.2054 18.556 -57.8156 17.3859 -58.4678 16.2384C-61.4975 11.4906 -59.1831 3.84019 -54.5334 1.32006C-49.2104 -1.5601 -43.8243 0.464998 -40.5842 5.52777L-40.6474 5.3252Z" fill="#33A944"/>
</svg>
