<svg width="24" height="24" viewBox="0 0 24 24" fill="none" xmlns="http://www.w3.org/2000/svg">
<path fill-rule="evenodd" clip-rule="evenodd" d="M9.09444 9.9134C9.09444 9.04467 9.43955 8.21153 10.0538 7.59724C10.6681 6.98296 11.5013 6.63786 12.37 6.63786C13.2387 6.63786 14.0719 6.98296 14.6862 7.59724C15.3005 8.21153 15.6456 9.04467 15.6456 9.9134C15.6456 10.7821 15.3005 11.6153 14.6862 12.2295C14.0719 12.8438 13.2387 13.1889 12.37 13.1889C11.5013 13.1889 10.6681 12.8438 10.0538 12.2295C9.43955 11.6153 9.09444 10.7821 9.09444 9.9134ZM15.5014 13.6991C16.2806 13.0545 16.8419 12.1852 17.1088 11.2098C17.3756 10.2344 17.335 9.20046 16.9925 8.249C16.6499 7.29755 16.0221 6.47496 15.1948 5.89349C14.3674 5.31202 13.3808 5 12.3696 5C11.3583 5 10.3717 5.31202 9.54439 5.89349C8.71704 6.47496 8.08926 7.29755 7.74672 8.249C7.40418 9.20046 7.36356 10.2344 7.63041 11.2098C7.89725 12.1852 8.45857 13.0545 9.23775 13.6991C6.62631 14.6187 5 16.6667 5 18.9211C5 19.1383 5.08628 19.3466 5.23985 19.5002C5.39342 19.6537 5.60171 19.74 5.81889 19.74C6.03607 19.74 6.24436 19.6537 6.39793 19.5002C6.5515 19.3466 6.63778 19.1383 6.63778 18.9211C6.63778 17.0623 8.56626 14.8267 12.37 14.8267C16.1737 14.8267 18.1022 17.0623 18.1022 18.9211C18.1022 19.1383 18.1885 19.3466 18.3421 19.5002C18.4956 19.6537 18.7039 19.74 18.9211 19.74C19.1383 19.74 19.3466 19.6537 19.5002 19.5002C19.6537 19.3466 19.74 19.1383 19.74 18.9211C19.74 16.6667 18.1153 14.6187 15.5014 13.6991Z" fill="#D2D2D2"/>
</svg>
