<svg width="24" height="24" viewBox="0 0 24 24" fill="none" xmlns="http://www.w3.org/2000/svg">
<path d="M10.4609 4.66896L2.8379 17.395C2.68073 17.6671 2.59757 17.9757 2.59669 18.29C2.59581 18.6043 2.67724 18.9134 2.83288 19.1864C2.98852 19.4595 3.21295 19.687 3.48383 19.8464C3.75472 20.0058 4.06262 20.0915 4.3769 20.095H19.6229C19.9372 20.0915 20.2451 20.0058 20.516 19.8464C20.7868 19.687 21.0113 19.4595 21.1669 19.1864C21.3226 18.9134 21.404 18.6043 21.4031 18.29C21.4022 17.9757 21.3191 17.6671 21.1619 17.395L13.5389 4.66896C13.3785 4.40446 13.1525 4.18577 12.883 4.034C12.6134 3.88222 12.3093 3.80249 11.9999 3.80249C11.6905 3.80249 11.3864 3.88222 11.1168 4.034C10.8472 4.18577 10.6213 4.40446 10.4609 4.66896V4.66896Z" stroke="#D2D2D2" stroke-width="1.35" stroke-linecap="round" stroke-linejoin="round"/>
<path d="M12 9.29492V12.8949" stroke="#D2D2D2" stroke-width="1.35" stroke-linecap="round" stroke-linejoin="round"/>
<path d="M12 16.4949H12.0101" stroke="#D2D2D2" stroke-width="1.2" stroke-linecap="round" stroke-linejoin="round"/>
</svg>
