<svg width="362" height="618" viewBox="0 0 362 618" fill="none" xmlns="http://www.w3.org/2000/svg">
<path d="M27.2602 471.992L0.99999 471.992L1 686.526L31.7128 686.526L31.7128 511.875L334.932 690.979L361.177 690.979L361.177 467.04L330.464 467.04L330.464 649.862L27.2602 471.992Z" stroke="#337844" stroke-width="0.55" stroke-miterlimit="10"/>
<path d="M0.999983 52.2408L359.326 184.335L0.999988 184.335L0.99999 220L302.823 220L0.999998 414.461L1 450.375L360.942 450.375L360.942 414.71L63.5718 414.71L360.942 220.75L360.942 184.923L361.192 185.011L361.192 145.378L273.756 114.313L273.756 -52.9321L361.192 -83.9976L361.192 -123.63L0.999981 9.14002L0.999983 52.2408ZM240.545 102.513L38.4137 30.6831L240.56 -41.1466L240.56 102.513L240.545 102.513Z" stroke="#337844" stroke-width="0.55" stroke-miterlimit="10"/>
</svg>
