<svg width="54" height="61" viewBox="0 0 54 61" fill="none" xmlns="http://www.w3.org/2000/svg">
<path d="M19.8102 60.3455C14.1396 60.3455 9.40215 58.754 5.59783 55.5709C1.86529 52.3879 -0.000976562 47.975 -0.000976562 42.3324C-0.000976562 36.1833 2.08064 31.5535 6.24386 28.4428C10.4789 25.3321 16.1494 23.7767 23.2556 23.7767C28.0649 23.7767 32.7664 24.5725 37.3603 26.164V25.1874C37.3603 18.0979 33.233 14.5532 24.9783 14.5532C20.0255 14.5532 14.7138 15.6021 9.04326 17.7L4.95182 5.11258C11.9862 2.00188 19.4513 0.446533 27.3471 0.446533C36.0324 0.446533 42.5285 2.61679 46.8352 6.95729C50.9985 11.1531 53.0801 17.3383 53.0801 25.5129V59.2603H37.2527V52.9666C32.8741 57.8859 27.0599 60.3455 19.8102 60.3455ZM24.763 48.9517C28.5673 48.9517 31.6538 48.0112 34.0226 46.1303C36.3913 44.1771 37.5757 41.7175 37.5757 38.7515V35.8216C34.4891 34.3748 31.0078 33.6514 27.1317 33.6514C23.5427 33.6514 20.7433 34.3748 18.7335 35.8216C16.7955 37.1961 15.8264 39.2217 15.8264 41.8983C15.8264 44.0686 16.6519 45.8048 18.3028 47.1069C19.9538 48.3368 22.1072 48.9517 24.763 48.9517Z" fill="white"/>
</svg>
