<svg width="63" height="79" viewBox="0 0 63 79" fill="none" xmlns="http://www.w3.org/2000/svg">
<path d="M32.9468 0C40.9862 0 47.5181 1.91705 52.5427 5.75116C57.639 9.58528 60.1872 14.4683 60.1872 20.4004C60.1872 28.5026 56.1317 34.3261 48.0206 37.8709C57.4237 40.9092 62.1253 46.8774 62.1253 55.7755C62.1253 62.4309 59.5053 67.8927 54.2654 72.1609C49.0973 76.429 42.1705 78.5631 33.4852 78.5631C25.8048 78.5631 19.3446 77.5142 14.1047 75.4162C8.93656 73.3183 4.235 70.1353 0 65.8671L8.82889 54.2563C15.3608 60.6947 23.3643 63.9139 32.8392 63.9139C36.4999 63.9139 39.5147 63.1181 41.8834 61.5266C44.3239 59.8628 45.5442 57.6202 45.5442 54.7989C45.5442 51.7605 44.1804 49.5179 41.4527 48.0711C38.7969 46.6242 35.172 45.9008 30.5781 45.9008H21.8569V32.0112H30.3628C39.3352 32.0112 43.8215 29.0814 43.8215 23.2217C43.8215 20.6174 42.7089 18.5556 40.4837 17.0365C38.2585 15.5173 35.3156 14.7577 31.6548 14.7577C23.4719 14.7577 16.6888 17.5429 11.3053 23.1132L2.58407 12.4789C10.4798 4.15965 20.6007 0 32.9468 0Z" fill="white"/>
</svg>
