<svg width="58" height="61" viewBox="0 0 58 61" fill="none" xmlns="http://www.w3.org/2000/svg">
<path d="M30.9795 60.563C22.2224 60.563 15.0085 57.7778 9.33793 52.2075C3.66734 46.5648 0.832031 39.2583 0.832031 30.2879C0.832031 21.824 3.52377 14.6621 8.90724 8.80245C14.2907 2.94278 21.1098 0.0129395 29.3644 0.0129395C38.4804 0.0129395 45.4431 3.05129 50.2523 9.12799C55.0615 15.2047 57.4662 22.6921 57.4662 31.5901C57.4662 32.4582 57.3944 33.905 57.2508 35.9306H17.0901C17.8797 39.62 19.4947 42.4414 21.9353 44.3946C24.3758 46.3478 27.4623 47.3244 31.1948 47.3244C36.2912 47.3244 40.9568 45.335 45.1918 41.3562L54.5591 49.7117C48.7449 56.9459 40.8851 60.563 30.9795 60.563ZM16.8748 25.6219H41.5311C41.0286 21.8601 39.7007 18.858 37.5473 16.6154C35.4657 14.3728 32.7381 13.2515 29.3644 13.2515C26.0626 13.2515 23.299 14.3728 21.0739 16.6154C18.9205 18.7856 17.5208 21.7878 16.8748 25.6219Z" fill="white"/>
</svg>
