<svg width="362" height="452" viewBox="0 0 362 452" fill="none" xmlns="http://www.w3.org/2000/svg">
<path d="M27.0688 231.764L0.808584 231.764L0.808594 446.298L31.5214 446.298L31.5214 271.646L334.74 450.75L360.986 450.75L360.986 226.812L330.273 226.812L330.273 409.634L27.0688 231.764Z" stroke="#337844" stroke-width="0.55" stroke-miterlimit="10"/>
<path d="M0.808576 -187.988L359.134 -55.8934L0.808582 -55.8933L0.808584 -20.2283L302.632 -20.2283L0.808592 174.232L0.808594 210.147L360.751 210.147L360.751 174.482L63.3804 174.482L360.751 -19.4789L360.751 -55.3056L361 -55.2174L361 -94.8501L273.565 -125.916L273.565 -293.161L361 -324.226L361 -363.859L0.808574 -231.088L0.808576 -187.988ZM240.354 -137.716L38.2223 -209.545L240.368 -281.375L240.368 -137.716L240.354 -137.716Z" stroke="#337844" stroke-width="0.55" stroke-miterlimit="10"/>
</svg>
