<svg width="290" height="290" viewBox="0 0 290 290" fill="none" xmlns="http://www.w3.org/2000/svg">
<g clip-path="url(#clip0_37191_18409)">
<rect width="290" height="290" rx="20" fill="#15223B"/>
<g filter="url(#filter0_f_37191_18409)">
<ellipse cx="148.5" cy="290" rx="232.5" ry="88" fill="#33A944"/>
</g>
<path fill-rule="evenodd" clip-rule="evenodd" d="M200.517 76.5427C197.649 79.8726 196.319 84.2605 196.62 88.6462L196.983 93.868C199.716 94.1437 201.827 95.671 200.663 100.242C200.075 102.548 199.539 104.566 199.063 106.359C197.391 112.658 196.457 116.175 196.594 119.593C196.729 122.955 196.141 126.034 191.876 127.434L191.871 131.956L191.858 132.089C191.82 132.458 190.864 141.2 185.117 150.404C182.375 154.796 178.237 159.718 172.111 163.694C173.175 172.754 175.499 182.904 179.245 186.548L182.103 189.588C191.217 191.335 206.423 194.49 220.915 198.597C238.665 203.63 252.831 217.028 258.824 234.479L278 290.33H169.102L161.71 246.154L166.712 230.194L148.203 217.017L129.692 230.194L134.696 246.154L127.301 290.33H12.5693L31.6943 234.615C37.6914 217.151 51.8526 203.684 69.6407 198.725C86.6476 193.982 104.832 190.492 113.474 188.943L116.504 186.548C120.37 182.782 122.727 172.093 123.741 162.825C118.316 159.015 114.567 154.481 112.021 150.404C106.274 141.2 105.319 132.458 105.281 132.089L105.267 131.819L105.267 127.818C99.6398 126.68 98.8993 123.313 99.0482 119.592C99.1857 116.169 98.2485 112.646 96.5677 106.327L96.5677 106.327C96.093 104.542 95.5589 102.534 94.973 100.243L94.9694 100.241C94.9694 100.241 83.7096 57.8618 109.088 54.4024C109.088 54.4024 116.505 43.3591 129.358 43.5243C133.402 43.5762 139.062 44.2312 145.539 44.9808C164.669 47.1947 190.93 50.2336 203.733 41C203.733 41 210.536 64.9146 200.517 76.5427ZM129.873 194.114L148.659 208.809L173.714 188.077C170.111 182.754 168.219 173.904 167.252 167.216C162.853 172.203 152.483 180.808 134.194 179.232L129.873 194.114ZM148.477 165.918H148.662C182.118 163.008 186.305 134.127 186.599 131.67L186.635 95.9241L186.419 79.2854C178.027 80.9638 162.046 82.1846 152.072 82.0864C136.373 81.9369 120.571 80.7071 115.204 80.2518C113.059 85.6731 110.941 94.4957 110.541 96.1897V131.67C110.832 134.105 115.007 163.008 148.477 165.918Z" fill="white"/>
</g>
<defs>
<filter id="filter0_f_37191_18409" x="-234" y="52" width="765" height="476" filterUnits="userSpaceOnUse" color-interpolation-filters="sRGB">
<feFlood flood-opacity="0" result="BackgroundImageFix"/>
<feBlend mode="normal" in="SourceGraphic" in2="BackgroundImageFix" result="shape"/>
<feGaussianBlur stdDeviation="75" result="effect1_foregroundBlur_37191_18409"/>
</filter>
<clipPath id="clip0_37191_18409">
<rect width="290" height="290" rx="20" fill="white"/>
</clipPath>
</defs>
</svg>
