<svg width="150" height="80" viewBox="0 0 150 80" fill="none" xmlns="http://www.w3.org/2000/svg">
<path d="M52.7383 48.703V30.0419C52.7383 22.8453 46.8691 16.9875 39.6584 16.9875H20.9608C13.7501 16.9875 7.88086 22.8453 7.88086 30.0419V48.703C7.88086 55.4813 12.9954 61.0043 19.6193 61.6737L33.37 50.544H18.5293V45.1884L33.2023 33.2219H19.1162V28.1173H42.0061V33.4729L27.3331 45.4394H42.0061V50.7951L28.5069 61.7574H39.6584C46.8691 61.7574 52.7383 55.8997 52.7383 48.703Z" fill="#231F20"/>
<path d="M63.8906 25.272H67.3283C68.8375 25.272 69.9275 26.1925 69.9275 27.7824C69.9275 29.2887 68.8375 30.2929 67.3283 30.2092H64.9806V33.4728H63.8906V25.272ZM67.1606 29.205C68.2506 29.205 68.9214 28.7029 68.9214 27.6987C68.9214 26.6946 68.2506 26.1925 67.1606 26.1925H64.9806V29.205H67.1606Z" fill="#231F20"/>
<path d="M73.5326 27.4478C75.0418 27.4478 76.2995 28.703 76.2995 30.4603C76.2995 32.2176 75.0418 33.5565 73.5326 33.4729C72.0234 33.4729 70.7657 32.2176 70.7657 30.4603C70.6818 28.7867 71.9395 27.4478 73.5326 27.4478ZM73.5326 32.7197C74.5387 32.7197 75.2934 31.8829 75.2934 30.544C75.2934 29.2051 74.5387 28.3683 73.5326 28.3683H73.4487C72.4426 28.3683 71.688 29.2051 71.688 30.544C71.688 31.8829 72.4426 32.7197 73.4487 32.7197H73.5326Z" fill="#231F20"/>
<path d="M80.1566 27.4478C81.4981 27.4478 82.4204 28.2009 82.5042 29.4561H81.4981C81.4142 29.1214 81.3304 28.7867 81.0789 28.6193C80.8273 28.3683 80.5758 28.2846 80.2404 28.2846H80.1566C79.0666 28.2846 78.3958 29.2888 78.3958 30.4603C78.3958 31.6319 78.9827 32.7197 80.1566 32.636H80.2404C80.5758 32.636 80.9112 32.5524 81.0789 32.3013C81.3304 32.0503 81.4981 31.7992 81.4981 31.4645H82.5042C82.3366 32.7197 81.4142 33.4729 80.1566 33.4729C78.3958 33.4729 77.3896 32.1339 77.3896 30.4603C77.3896 28.7867 78.3958 27.4478 80.1566 27.4478Z" fill="#231F20"/>
<path d="M86.3607 27.4478C87.7022 27.4478 88.6245 28.2009 88.7083 29.4561H87.7022C87.6183 29.1214 87.5345 28.7867 87.283 28.6193C87.0314 28.3683 86.7799 28.2846 86.4445 28.2846H86.3607C85.2707 28.2846 84.5999 29.2888 84.5999 30.4603C84.5999 31.6319 85.1868 32.7197 86.3607 32.636H86.4445C86.7799 32.636 87.1153 32.5524 87.283 32.3013C87.5345 32.0503 87.7022 31.7992 87.7022 31.4645H88.7083C88.5407 32.7197 87.6183 33.4729 86.3607 33.4729C84.5999 33.4729 83.5938 32.1339 83.5938 30.4603C83.5938 28.7867 84.5999 27.4478 86.3607 27.4478Z" fill="#231F20"/>
<path d="M95.3332 27.615V33.4727H94.3271V28.7029L91.4763 33.4727H90.1348V27.615H91.1409V32.3849L94.0755 27.615H95.3332Z" fill="#231F20"/>
<path d="M102.376 27.6151V33.4728H101.37V28.7029L98.5193 33.4728H97.1777V27.6151H98.1839V32.4686L101.118 27.6151H102.376ZM98.8546 25.272C98.9385 25.8577 99.19 26.1925 99.6931 26.1925C100.196 26.1925 100.532 25.8577 100.532 25.272H101.37C101.37 26.3598 100.699 26.7782 99.6093 26.7782C98.5193 26.7782 97.8485 26.2762 97.8485 25.272H98.8546Z" fill="#231F20"/>
<path d="M106.568 27.4478C107.909 27.4478 108.832 28.2009 108.915 29.4561H107.909C107.825 29.1214 107.742 28.7867 107.49 28.6193C107.238 28.3683 106.987 28.2846 106.652 28.2846H106.568C105.478 28.2846 104.807 29.2888 104.807 30.4603C104.807 31.6319 105.394 32.7197 106.568 32.636H106.652C106.987 32.636 107.322 32.5524 107.49 32.3013C107.742 32.0503 107.909 31.7992 107.909 31.4645H108.915C108.748 32.7197 107.825 33.4729 106.568 33.4729C104.807 33.4729 103.801 32.1339 103.801 30.4603C103.801 28.7867 104.891 27.4478 106.568 27.4478Z" fill="#231F20"/>
<path d="M112.437 30.6275L111.347 31.6317V33.4727H110.341V27.615H111.347V30.4602L114.282 27.615H115.455L113.108 29.8744L115.623 33.4727H114.365L112.437 30.6275Z" fill="#231F20"/>
<path d="M118.726 27.4478C120.235 27.4478 121.493 28.703 121.493 30.4603C121.493 32.2176 120.235 33.5565 118.726 33.4729C117.217 33.4729 115.959 32.2176 115.959 30.4603C115.959 28.7867 117.217 27.4478 118.726 27.4478ZM118.81 32.7197C119.816 32.7197 120.571 31.8829 120.571 30.544C120.571 29.2051 119.816 28.3683 118.81 28.3683H118.726C117.72 28.3683 116.965 29.2051 116.965 30.544C116.965 31.8829 117.72 32.7197 118.726 32.7197H118.81Z" fill="#231F20"/>
<path d="M125.349 27.4478C126.858 27.4478 127.781 28.5356 127.781 30.0419V30.6277H123.672C123.672 31.9666 124.595 32.7197 125.349 32.7197H125.433C126.104 32.7197 126.607 32.385 126.775 31.7155H127.781C127.529 32.8871 126.607 33.5565 125.349 33.5565C123.84 33.5565 122.582 32.4687 122.666 30.4603C122.582 28.5356 123.924 27.4478 125.349 27.4478ZM126.775 29.8745C126.775 28.8703 126.104 28.3683 125.349 28.3683H125.265C124.595 28.3683 123.84 28.7867 123.672 29.8745H126.775Z" fill="#231F20"/>
<path d="M66.1544 37.5733C67.6637 37.5733 68.9213 38.8285 68.9213 40.5858C68.9213 42.3432 67.6637 43.6821 66.1544 43.5984C64.6452 43.5984 63.3875 42.3432 63.3875 40.5858C63.3037 38.8285 64.6452 37.4896 66.1544 37.5733ZM66.2383 42.7616C67.2444 42.7616 67.999 41.9248 67.999 40.5858C67.999 39.2469 67.2444 38.4101 66.2383 38.4101H66.1544C65.1483 38.4101 64.3937 39.2469 64.3937 40.5858C64.3937 41.9248 65.1483 42.7616 66.1544 42.7616H66.2383Z" fill="#231F20"/>
<path d="M70.3464 37.9915C70.4303 37.4058 70.5979 36.9874 70.8495 36.6526C71.2687 36.1505 71.9395 35.8995 72.8618 35.8995H74.2033C74.6225 35.8995 74.7902 35.8158 74.7902 35.4811V35.3137H75.7125V35.6484C75.7125 36.4853 75.3771 36.82 74.371 36.82H72.8618C71.5202 36.82 71.101 37.4895 71.0172 39.0794C71.4364 38.4936 72.2749 37.9915 73.1133 37.9915C74.5387 37.9915 75.7125 39.0794 75.7125 40.753C75.7125 42.4267 74.5387 43.7656 72.9456 43.7656C71.101 43.7656 70.1787 42.4267 70.1787 40.251C70.1787 39.2468 70.2626 38.4936 70.3464 37.9915ZM73.0295 42.8451C74.0356 42.8451 74.7064 41.9246 74.7064 40.6694C74.7064 39.4978 74.0356 38.661 73.0295 38.661H72.9456C71.9395 38.661 71.1849 39.4978 71.1849 40.5857C71.1849 41.8409 71.9395 42.8451 73.0295 42.8451Z" fill="#231F20"/>
<path d="M86.194 42.6779V45.1047H85.2717V43.5147H77.1387V37.657H78.1448V42.6779H80.6602V37.657H81.6663V42.6779H84.1817V37.657H85.1879V42.6779H86.194Z" fill="#231F20"/>
<path d="M89.6314 37.5733C91.1406 37.5733 92.0629 38.6612 92.0629 40.1675V40.7533H87.9545C87.9545 42.0922 88.8768 42.8453 89.6314 42.8453H89.7152C90.386 42.8453 90.889 42.5106 91.0567 41.8411H92.0629C91.8113 43.0127 90.889 43.6821 89.6314 43.6821C88.1221 43.6821 86.8645 42.5943 86.9483 40.5859C86.9483 38.5775 88.2898 37.4897 89.6314 37.5733ZM91.1406 39.9164C91.1406 38.9123 90.4698 38.4102 89.7152 38.4102H89.6314C88.9606 38.4102 88.206 38.8286 88.0383 39.9164H91.1406Z" fill="#231F20"/>
<path d="M96.0032 37.5733C97.3448 37.5733 98.2671 38.3264 98.3509 39.5817H97.3448C97.2609 39.2469 97.1771 38.9122 96.9256 38.7448C96.674 38.4938 96.4225 38.4101 96.0871 38.4101H96.0032C94.9132 38.4101 94.2425 39.4143 94.2425 40.5858C94.2425 41.7574 94.8294 42.8453 96.0032 42.7616H96.0871C96.4225 42.7616 96.7579 42.6779 96.9256 42.4268C97.1771 42.1758 97.3448 41.9248 97.3448 41.59H98.3509C98.1832 42.8453 97.2609 43.5984 96.0032 43.5984C94.2425 43.5984 93.2363 42.2595 93.2363 40.5858C93.2363 38.8285 94.2425 37.4896 96.0032 37.5733Z" fill="#231F20"/>
<path d="M103.885 38.4938H101.956V43.5147H100.95V38.4938H99.0215V37.657H103.885V38.4938Z" fill="#231F20"/>
<path d="M104.975 37.657H107.742C108.915 37.657 109.586 38.3264 109.586 39.1633C109.586 39.8327 109.167 40.3348 108.496 40.5859C109.083 40.6695 109.754 41.1716 109.754 41.9248C109.754 42.8453 108.915 43.5984 107.825 43.5984H104.975V37.657ZM107.658 40.1674C108.245 40.1674 108.664 39.8327 108.664 39.2469C108.664 38.7448 108.245 38.4101 107.574 38.4101H106.065V40.1674H107.658ZM107.574 42.7616C108.328 42.7616 108.748 42.4269 108.748 41.8411C108.748 41.339 108.328 41.0043 107.658 41.0043H105.981V42.8453H107.574V42.7616Z" fill="#231F20"/>
<path d="M113.611 37.5733C115.12 37.5733 116.378 38.8285 116.378 40.5858C116.378 42.3432 115.12 43.6821 113.611 43.5984C112.101 43.5984 110.844 42.3432 110.844 40.5858C110.844 38.8285 112.101 37.4896 113.611 37.5733ZM113.695 42.7616C114.701 42.7616 115.455 41.9248 115.455 40.5858C115.455 39.2469 114.701 38.4101 113.695 38.4101H113.611C112.605 38.4101 111.85 39.2469 111.85 40.5858C111.85 41.9248 112.605 42.7616 113.611 42.7616H113.695Z" fill="#231F20"/>
<path d="M69.4244 50.0417C69.676 50.3764 69.8437 50.7111 69.8437 51.2132C69.8437 52.7195 68.586 53.7237 66.6575 53.7237C64.5614 53.7237 63.3876 52.7195 63.3037 50.8785H64.8968C65.0645 51.799 65.6514 52.3011 66.7414 52.3011C67.7475 52.3011 68.2506 51.8827 68.2506 51.2132C68.2506 50.5438 67.7475 50.209 66.8252 50.209H65.7352V48.7864H66.7414C67.6637 48.7864 68.1668 48.368 68.1668 47.6986C68.1668 47.1128 67.6637 46.6944 66.7414 46.6944C66.2383 46.6944 65.8191 46.8617 65.4837 47.1128C65.2322 47.3638 65.0645 47.6986 64.9806 48.2007H63.3876C63.3876 47.7822 63.5552 47.3638 63.7229 46.8617C63.9745 46.4433 64.3099 46.0249 64.8129 45.7739C65.316 45.5228 65.9029 45.3555 66.6575 45.3555C68.6698 45.3555 69.7598 46.276 69.7598 47.6986C69.7598 48.5354 69.2568 49.2048 68.3345 49.4559C68.7537 49.5396 69.0891 49.7069 69.4244 50.0417Z" fill="#231F20"/>
<path d="M71.1855 47.6987H72.6948V49.9581H74.9586V47.6987H76.4678V53.5565H74.9586V51.1297H72.6948V53.5565H71.1855V47.6987Z" fill="#231F20"/>
<path d="M77.7246 50.6276C77.7246 48.6193 78.8985 47.5314 80.24 47.6151C81.0785 47.6151 81.7492 48.0335 82.0008 48.5356V47.6988H83.51V53.5565H82.0008V52.7197C81.6654 53.2218 81.0785 53.6402 80.24 53.6402C79.0661 53.7239 77.7246 52.636 77.7246 50.6276ZM80.6592 52.4686C81.4138 52.4686 82.0008 51.7992 82.0008 50.6276C82.0008 49.4561 81.4138 48.7866 80.6592 48.7866H80.5754C79.8208 48.7866 79.2338 49.5398 79.2338 50.6276C79.2338 51.6318 79.8208 52.4686 80.5754 52.4686H80.6592Z" fill="#231F20"/>
<path d="M85.1035 47.6987H86.6966V49.9581H88.9604V47.6987H90.4697V53.5565H88.9604V51.1297H86.6966V53.5565H85.1035V47.6987Z" fill="#231F20"/>
<path d="M97.764 47.6987V53.5565H96.2548V49.3724L94.0748 53.5565H92.0625V47.6987H93.5717V51.8828L95.6679 47.6987H97.764Z" fill="#231F20"/>
<path d="M99.0213 50.6276C99.0213 48.8703 100.111 47.5314 101.788 47.615C103.465 47.615 104.471 48.8703 104.471 50.6276C104.471 50.7113 104.471 50.9623 104.471 51.2134H100.531C100.614 51.9665 101.201 52.5523 101.872 52.5523H101.956C102.543 52.5523 102.878 52.2176 102.962 51.7991H104.471C104.22 52.9707 103.214 53.8075 101.788 53.8075C100.279 53.7238 98.9375 52.5523 99.0213 50.6276ZM102.962 49.9581C102.962 49.2887 102.375 48.8703 101.788 48.8703H101.704C101.034 48.8703 100.531 49.2887 100.531 49.9581H102.962Z" fill="#231F20"/>
</svg>
