<svg width="166" height="301" viewBox="0 0 166 301" fill="none" xmlns="http://www.w3.org/2000/svg">
<g clip-path="url(#clip0_37370_6257)">
<path d="M166.476 22.5543C155.945 23.3831 145.595 27.8482 136.186 32.9146C123.918 39.519 112.356 47.4891 101.333 56.2753C89.3827 65.835 78.0515 76.2269 67.3798 87.3851C57.7941 97.3885 48.6862 108.033 40.7964 119.616C33.5192 130.273 26.4471 142.107 23.9087 155.114C23.2282 158.578 25.0151 162.521 28.0523 163.94C46.7719 172.659 67.258 159.982 83.148 149.263C92.408 143.016 101.353 136.278 110.589 130.011C115.136 126.923 119.894 124.231 124.5 121.257C124.391 121.324 122.809 122.202 123.954 121.576C124.232 121.425 124.497 121.271 124.76 121.132C125.3 120.842 125.841 120.552 126.379 120.276C127.58 119.645 128.789 119.046 130.008 118.464C132.233 117.404 134.494 116.44 136.798 115.603C137.972 115.174 139.155 114.776 140.355 114.426C141.06 114.213 143.256 113.915 140.742 114.283C141.395 114.192 142.046 113.968 142.691 113.846C145.032 113.371 147.404 113.093 149.772 113.035L150.532 113.025C152.207 112.991 149.12 112.92 149.958 112.999C150.526 113.054 151.076 113.06 151.628 113.126C152.804 113.244 153.965 113.432 155.126 113.694C155.682 113.805 156.214 113.97 156.765 114.11C158.674 114.625 155.15 113.433 156.958 114.178C158.155 114.669 159.336 115.171 160.484 115.769L157.012 104.835C152.925 116.971 147.311 128.478 140.798 139.376C140.42 140.024 140.032 140.654 139.641 141.299C139.5 141.521 138.783 142.691 139.369 141.761C139.917 140.882 139.347 141.801 139.25 141.944C138.341 143.385 137.432 144.826 136.499 146.247C134.807 148.845 133.08 151.406 131.333 153.933C127.744 159.117 124.053 164.192 120.323 169.258C104.935 190.052 88.8818 210.594 77.3776 234.157C70.5292 248.175 65.4847 263.233 62.7601 278.682C62.0187 282.93 64.718 287.616 68.8562 288.149C72.9945 288.682 77.1118 285.951 77.9129 281.404C78.5329 277.899 79.2617 274.4 80.107 270.94C80.4946 269.35 80.919 267.782 81.3539 266.232C81.5766 265.465 81.8021 264.684 82.0247 263.917L82.3326 262.931C82.813 261.36 82.0456 263.744 82.3829 262.749C84.4765 256.499 86.8927 250.358 89.6233 244.368C92.3027 238.633 95.2328 233.023 98.4318 227.584C99.1903 226.275 99.9754 224.972 100.758 223.682C100.983 223.314 101.208 222.946 101.434 222.578C101.393 222.644 100.666 223.797 101.168 223.012C101.67 222.227 102.199 221.374 102.723 220.549C104.407 217.921 106.129 215.314 107.884 212.744C122.038 191.984 138.191 172.805 151.495 151.402C159.264 138.911 166.083 125.86 170.823 111.774C172.261 107.488 171.404 102.964 167.35 100.839C147.858 90.6092 126.155 101.109 108.695 112.163C99.2687 118.141 90.2604 124.852 81.112 131.298C76.6519 134.434 72.1767 137.507 67.5737 140.392C66.5342 141.04 65.4976 141.674 64.4505 142.29C63.9336 142.6 63.4196 142.896 62.9055 143.191C61.0528 144.252 64.2299 142.497 62.3621 143.496C60.2452 144.636 58.1105 145.728 55.9322 146.694C53.6574 147.729 51.3314 148.606 48.9676 149.328C48.4394 149.488 47.8875 149.629 47.3593 149.789C46.4657 150.052 49.1768 149.385 48.2605 149.556C47.9595 149.614 47.6689 149.688 47.3811 149.749C46.2887 149.973 45.1755 150.163 44.0765 150.282C42.9775 150.402 41.9221 150.442 40.8563 150.464C38.9584 150.512 42.7881 150.659 40.9253 150.463C40.4398 150.411 39.9381 150.369 39.4422 150.299C38.4133 150.138 37.3958 149.919 36.3868 149.659C34.5781 149.193 38.1917 150.418 36.4663 149.674C35.9458 149.452 35.4356 149.247 34.9312 149.013L39.0747 157.839C39.2823 156.804 39.5135 155.788 39.7845 154.779C39.9266 154.277 40.0792 153.791 40.2081 153.285C40.5425 152.098 39.8395 154.436 39.8641 154.382C40.0232 154.001 40.1218 153.578 40.2677 153.194C41.071 150.906 41.9907 148.655 43.0079 146.469C44.1539 143.983 45.4268 141.553 46.7573 139.178C47.4183 138.012 48.0926 136.848 48.7905 135.704L49.263 134.928C50.1077 133.533 48.3815 136.301 48.997 135.362C49.4714 134.645 49.9222 133.909 50.3834 133.19C57.7213 121.955 66.2753 111.597 75.31 101.867C77.8087 99.1657 80.3518 96.5172 82.9395 93.9218C84.1486 92.7031 85.3548 91.4985 86.5847 90.3135L87.4027 89.5329C88.7595 88.1961 86.4692 90.4084 87.3545 89.5675C88.1186 88.8499 88.8722 88.1154 89.6362 87.3978C94.8882 82.4437 100.294 77.6828 105.834 73.0814C116.305 64.4356 127.292 56.3798 138.934 49.6649L139.758 49.1955C141.252 48.3436 138.147 50.0829 139.635 49.2594C140.38 48.8477 141.124 48.4359 141.891 48.0436C143.293 47.3061 144.693 46.5828 146.113 45.8932C148.832 44.5637 151.585 43.344 154.392 42.268C155.664 41.7699 156.953 41.3197 158.237 40.8978C158.944 40.6705 159.664 40.4458 160.366 40.2468C161.08 40.0505 163.109 39.763 160.489 40.1829C162.893 39.8083 165.213 39.166 167.647 38.9891C171.679 38.6747 175.253 34.2553 174.765 29.9525C174.25 25.438 170.805 22.2699 166.464 22.6111L166.478 22.6138L166.476 22.5543Z" fill="#33A944"/>
</g>
<defs>
<clipPath id="clip0_37370_6257">
<rect width="188" height="301" fill="white"/>
</clipPath>
</defs>
</svg>
