<svg width="421" height="200" viewBox="0 0 421 200" fill="none" xmlns="http://www.w3.org/2000/svg">
<path d="M216.413 31.0047C216.698 35.8177 218.918 40.6372 220.298 45.1877C221.679 49.7382 223.428 54.0328 225.227 58.4127C227.158 63.1004 229.004 67.8514 231.061 72.4946C233.476 77.9412 236.505 84.9249 244.376 82.5989L240.048 82.2393L240.887 82.6651C243.569 84.046 247.695 82.4747 248.376 79.3084L248.562 78.4188L245.825 81.9475C249.109 79.525 250.621 76.5612 250.083 72.7051C249.693 69.844 247.928 67.0234 246.681 64.4434C244.608 60.1936 242.317 56.0409 240.106 51.8701C237.901 47.682 235.68 43.5457 233.081 39.5708C230.482 35.5959 228.164 30.6057 224.67 27.3464C221.926 24.7783 216.187 26.9536 216.436 31.0195L216.43 31.0088L216.413 31.0047Z" fill="#33A944"/>
<path d="M375.398 20.0527L378.762 39.5999C379.874 46.0828 380.668 52.7501 382.247 59.1199C383.243 63.11 387.479 65.6277 391.712 64.8478C395.616 64.1299 399.876 60.4474 399.453 56.2397C398.042 42.3917 394.839 28.6537 392.441 14.9918C391.656 10.5243 386.134 8.12326 381.784 9.41159C376.853 10.8789 374.607 15.5745 375.387 20.0593L375.398 20.0527Z" fill="#33A944"/>
<path d="M95.556 164.466C88.7429 150.296 69.5237 142.974 54.8048 153.535C47.9479 158.46 43.2918 166.197 44.0402 174.341C44.7362 181.946 49.3065 189.178 56.7576 191.944C61.1919 193.593 65.8683 193.581 70.6445 192.715C75.0222 191.923 80.0864 190.45 83.8316 187.904C92.6185 181.949 92.0252 170.018 84.5605 164.173C78.0616 159.079 65.72 156.349 58.7376 163.48C51.6992 170.673 57.2985 180.766 63.6934 185.522C67.8372 188.591 73.7588 188.997 77.9807 185.038C81.9545 181.307 81.7824 174.979 76.9889 172.47C72.8515 170.308 66.7139 172.002 64.0697 176.06C61.1704 180.493 62.9373 185.318 65.1361 189.311C66.6547 192.047 71.3994 190.573 71.3893 187.422C71.3769 185.267 71.7612 183.694 72.3109 181.67C72.5451 180.838 73.5384 181.189 72.0135 181.813C74.0201 180.996 72.1879 181.641 72.3337 181.657C70.166 181.458 69.7071 178.793 71.3242 177.433C70.3911 178.213 71.3221 177.192 71.5262 177.572C71.3414 177.252 70.2143 176.538 69.9303 176.204C68.857 175.003 67.3437 172.961 66.9488 171.724L66.7654 171.091C66.7654 171.091 66.7849 171.151 66.7744 171.185C66.7639 171.22 66.7472 171.243 66.7192 171.274C65.4166 169.992 68.7741 171.225 66.4112 171.452C67.4768 171.348 66.8656 171.132 66.7322 171.138C66.0194 171.194 67.4385 170.887 67.5824 170.847C69.3587 170.447 71.4572 170.842 73.2189 171.418C74.8814 171.98 76.7305 172.918 77.7514 174.291C78.5955 175.411 78.8053 176.854 78.5193 177.702C77.9936 179.214 75.0469 180.062 73.3463 180.646C70.9964 181.448 68.614 182.14 66.1439 182.287C62.056 182.528 58.9404 181.055 57.0971 178.337C55.2651 175.611 54.2914 171.95 55.3202 168.412C56.5212 164.277 59.6751 161.233 63.4867 159.117C73.7285 153.418 85.4536 158.794 91.0603 167.162C92.8193 169.787 96.8736 167.275 95.5446 164.473L95.5384 164.462L95.556 164.466Z" fill="white"/>
<path d="M146.982 40.2771C163.594 58.6757 162.695 90.7091 138.348 105.409C126.998 112.26 112.876 114.226 101.419 108.2C90.7152 102.566 82.9192 91.6145 83.3637 79.2458C83.6337 71.8686 86.4678 65.1694 90.6132 58.8496C94.4143 53.0387 99.6418 46.6797 105.604 42.8472C119.614 33.863 136.706 41.9736 140.741 56.2335C144.261 68.6665 140.8 88.0349 126.153 93.7249C111.385 99.4615 100.008 85.2842 96.9161 73.1894C94.9257 65.3836 97.9081 56.6241 106.249 52.9793C114.1 49.5487 123.257 53.6303 124.024 62.0389C124.683 69.2816 118.508 77.0604 110.982 78.3973C102.752 79.8539 96.749 74.388 92.2612 68.8048C89.1759 64.9491 94.2028 59.0504 98.7965 60.9904C101.93 62.3153 104.467 62.7335 107.759 63.1634C109.116 63.3445 109.202 61.6873 107.371 63.4906C109.774 61.1045 107.733 63.351 107.8 63.1282C106.78 66.3576 110.41 68.6476 113.372 67.1443C111.66 68.0063 113.714 67.291 113.303 66.7705C113.67 67.236 114.023 69.2712 114.334 69.8952C115.435 72.164 117.517 75.5776 119.084 76.9111L119.907 77.5497C119.882 77.5066 119.83 77.4795 119.778 77.475C119.726 77.4704 119.67 77.4797 119.624 77.5063C120.71 80.1516 120.936 74.5907 119.176 77.8569C119.972 76.387 119.916 77.3952 119.814 77.5803C119.303 78.5646 120.607 76.7209 120.746 76.5371C122.411 74.2328 123.097 70.978 123.312 68.0983C123.49 65.3664 123.24 62.1473 121.847 59.8404C120.706 57.9502 118.74 56.755 117.316 56.6701C114.792 56.5083 111.757 60.2236 109.888 62.3015C107.281 65.1843 104.842 68.1883 103.15 71.634C100.316 77.3568 100.59 82.7209 103.465 87.0196C106.34 91.3184 111.115 94.9333 116.896 95.6137C123.661 96.4035 130.018 93.7437 135.405 89.554C149.919 78.3161 149.149 58.2328 140.297 45.0896C137.522 40.963 143.638 36.6743 146.936 40.3036L146.954 40.293L146.982 40.2771Z" fill="#33A944"/>
<path d="M289.247 24.2956L289.501 24.0497C289.185 25.7679 288.852 27.482 288.536 29.2002L288.376 28.9229C287.362 27.034 288.33 24.4979 289.537 22.8484C289.57 22.8007 288.937 24.2048 289.177 24.0945C289.314 24.0155 288.864 21.6299 288.846 21.4411C288.58 19.5044 288.278 17.5595 287.982 15.6254C287.424 12.051 286.819 8.47497 286.047 4.95257C284.484 -2.18007 282.846 -9.99496 279.417 -16.4346C277.263 -20.4815 281.218 -25.6663 285.32 -26.7261C290.216 -27.9889 294.088 -24.891 294.834 -20.3865C295.507 -16.3236 296.955 -12.3669 297.876 -8.34794C298.926 -3.79129 299.848 0.781943 300.575 5.41127C301.229 9.62686 301.757 13.859 302.03 18.1244C302.308 22.5293 302.519 26.5033 299.359 30.2476C297.183 32.8264 292.888 33.6564 290.326 31.5093L290.182 31.3929L292.69 32.3914L292.334 32.3549C288.768 32.0246 286.312 27.0855 289.264 24.2717L289.258 24.261L289.247 24.2956Z" fill="white"/>
<path d="M356.107 -34.6152L363.365 52.5132L375.125 50.9433L367.867 -36.1851L356.101 -34.6259L356.107 -34.6152Z" fill="white"/>
</svg>
