<svg width="38" height="38" viewBox="0 0 38 38" fill="none" xmlns="http://www.w3.org/2000/svg">
<path fill-rule="evenodd" clip-rule="evenodd" d="M14.5555 15.6668C14.5555 14.488 15.0238 13.3576 15.8573 12.5241C16.6907 11.6906 17.8212 11.2223 18.9999 11.2223C20.1787 11.2223 21.3091 11.6906 22.1426 12.5241C22.9761 13.3576 23.4444 14.488 23.4444 15.6668C23.4444 16.8455 22.9761 17.9759 22.1426 18.8094C21.3091 19.6429 20.1787 20.1112 18.9999 20.1112C17.8212 20.1112 16.6907 19.6429 15.8573 18.8094C15.0238 17.9759 14.5555 16.8455 14.5555 15.6668ZM23.2488 20.8034C24.306 19.9288 25.0676 18.7493 25.4297 17.4258C25.7918 16.1023 25.7367 14.6994 25.2719 13.4084C24.8071 12.1174 23.9553 11.0013 22.8327 10.2123C21.7102 9.42337 20.3715 9 18.9994 9C17.6273 9 16.2886 9.42337 15.166 10.2123C14.0434 11.0013 13.1916 12.1174 12.7269 13.4084C12.2621 14.6994 12.207 16.1023 12.5691 17.4258C12.9311 18.7493 13.6927 19.9288 14.75 20.8034C11.2067 22.0512 9 24.83 9 27.8889C9 28.1836 9.11706 28.4662 9.32543 28.6746C9.53381 28.8829 9.81642 29 10.1111 29C10.4058 29 10.6884 28.8829 10.8968 28.6746C11.1051 28.4662 11.2222 28.1836 11.2222 27.8889C11.2222 25.3667 13.8389 22.3334 18.9999 22.3334C24.161 22.3334 26.7777 25.3667 26.7777 27.8889C26.7777 28.1836 26.8947 28.4662 27.1031 28.6746C27.3115 28.8829 27.5941 29 27.8888 29C28.1835 29 28.4661 28.8829 28.6744 28.6746C28.8828 28.4662 28.9999 28.1836 28.9999 27.8889C28.9999 24.83 26.7954 22.0512 23.2488 20.8034Z" fill="#181818"/>
</svg>
